# xmcd CD database file
#
# Track frame offsets:
#	150
#	11597
#	29989
#	52256
#	71515
#	90461
#	115752
#	135326
#	153302
#	169107
#	190990
#	205122
#	225954
#	241790
#
# Disc length: 3441 seconds
#
# Revision: 3
# Processed by: cddbd v1.5.2PL0 Copyright (c) Steve Scherf et al.
# Submitted via: CDex 1.70beta2
#
DISCID=b20d6f0e
DTITLE=Happiness - Happy Time
DYEAR=2012
DGENRE=J-Pop
TTITLE0=Bigbang Breakout (instrumental)
TTITLE1=We Can Fly
TTITLE2=フレンズ
TTITLE3=Wish
TTITLE4=Shining
TTITLE5=Spica
TTITLE6=Kiss Me
TTITLE7=I'm for you
TTITLE8=Alive
TTITLE9=Magicな…Love
TTITLE10=Have A Good Time
TTITLE11=Body and Soul
TTITLE12=Perfect Smile
TTITLE13=Happy Talk
EXTD=YEAR: 2012
EXTT0=
EXTT1=
EXTT2=
EXTT3=
EXTT4=
EXTT5=
EXTT6=
EXTT7=
EXTT8=
EXTT9=
EXTT10=
EXTT11=
EXTT12=
EXTT13=
PLAYORDER=
